<svg xmlns="http://www.w3.org/2000/svg" class="graphdiagram" viewBox="-1512.3842112690177 -249.27582397079482 1692.5681041252697 795.5951635276333"><g class="layer relationships"><g class="related-pair"><g class="relationship" transform="translate(-566.3722363281254,78.61646362304685) rotate(-12.126624847745564)"><path class="relationship" d="M 105.11621962723348 4 L 391.839786845551 4 L 391.839786845551 16 L 423.839786845551 0 L 391.839786845551 -16 L 391.839786845551 -4 L 105.11621962723348 -4 Z" fill="rgb(0, 0, 0)" stroke="rgb(51, 51, 51)" stroke-width="0px"/><text class="type" text-anchor="middle" baseline-shift="30%" alignment-baseline="alphabetic" x="248.47800323639223" y="0" font-size="50px" font-family="&quot;Gill Sans&quot;, &quot;Gill Sans MT&quot;, Calibri, sans-serif">depuis</text></g></g><g class="related-pair"><g class="relationship" transform="translate(-566.3722363281254,78.61646362304685) rotate(164.12671755458888)"><path class="relationship" d="M 105.11621962723348 4 L 566.686595853901 4 L 566.686595853901 16 L 598.686595853901 0 L 566.686595853901 -16 L 566.686595853901 -4 L 105.11621962723348 -4 Z" fill="rgb(0, 0, 0)" stroke="rgb(51, 51, 51)" stroke-width="0px"/><text class="type" text-anchor="middle" baseline-shift="30%" alignment-baseline="alphabetic" transform="rotate(180)" x="-335.90140774056727" y="0" font-size="50px" font-family="&quot;Gill Sans&quot;, &quot;Gill Sans MT&quot;, Calibri, sans-serif">de_l'annee</text></g></g><g class="related-pair"><g class="relationship" transform="translate(-566.3722363281254,78.61646362304685) rotate(145.32240023547115)"><path class="relationship" d="M 105.11621962723348 4 L 541.155084022286 4 L 541.155084022286 16 L 573.155084022286 0 L 541.155084022286 -16 L 541.155084022286 -4 L 105.11621962723348 -4 Z" fill="rgb(0, 0, 0)" stroke="rgb(51, 51, 51)" stroke-width="0px"/><text class="type" text-anchor="middle" baseline-shift="30%" alignment-baseline="alphabetic" transform="rotate(180)" x="-323.13565182475975" y="0" font-size="50px" font-family="&quot;Gill Sans&quot;, &quot;Gill Sans MT&quot;, Calibri, sans-serif">du_mois</text></g></g><g class="related-pair"><g class="relationship" transform="translate(-1110.4845019531244,455.0630249023437) rotate(0)"><path class="relationship" d="M 88.4869423806453 4 L 387.1722864197234 4 L 387.1722864197234 16 L 419.1722864197234 0 L 387.1722864197234 -16 L 387.1722864197234 -4 L 88.4869423806453 -4 Z" fill="rgb(0, 0, 0)" stroke="rgb(51, 51, 51)" stroke-width="0px"/><text class="type" text-anchor="middle" baseline-shift="30%" alignment-baseline="alphabetic" x="237.82961440018434" y="0" font-size="50px" font-family="&quot;Gill Sans&quot;, &quot;Gill Sans MT&quot;, Calibri, sans-serif">de_saison</text></g></g><g class="related-pair"><g class="relationship" transform="translate(-566.3722363281254,78.61646362304685) rotate(-175.32556980151793)"><path class="relationship" d="M 105.11621962723348 4 L 495.6625588662398 4 L 495.6625588662398 16 L 527.6625588662398 0 L 495.6625588662398 -16 L 495.6625588662398 -4 L 105.11621962723348 -4 Z" fill="rgb(0, 0, 0)" stroke="rgb(51, 51, 51)" stroke-width="0px"/><text class="type" text-anchor="middle" baseline-shift="30%" alignment-baseline="alphabetic" transform="rotate(180)" x="-300.38938924673664" y="0" font-size="50px" font-family="&quot;Gill Sans&quot;, &quot;Gill Sans MT&quot;, Calibri, sans-serif">a_lheure</text></g></g><g class="related-pair"><g class="relationship" transform="translate(-566.3722363281254,78.61646362304685) rotate(-149.64950938013632)"><path class="relationship" d="M 105.11621962723348 4 L 391.9385191576602 4 L 391.9385191576602 16 L 423.9385191576602 0 L 391.9385191576602 -16 L 391.9385191576602 -4 L 105.11621962723348 -4 Z" fill="rgb(0, 0, 0)" stroke="rgb(51, 51, 51)" stroke-width="0px"/><text class="type" text-anchor="middle" baseline-shift="30%" alignment-baseline="alphabetic" transform="rotate(180)" x="-248.52736939244684" y="0" font-size="50px" font-family="&quot;Gill Sans&quot;, &quot;Gill Sans MT&quot;, Calibri, sans-serif">le_jour</text></g></g></g><g class="layer nodes"><circle class="node node-id-5" r="87.77912532985948" fill="rgb(255, 255, 255)" stroke="rgb(0, 0, 0)" stroke-width="8px" cx="-1194.7169799804694" cy="27.239423065185505"/><circle class="node node-id-7" r="67.82873534774785" fill="rgb(255, 255, 255)" stroke="rgb(0, 0, 0)" stroke-width="8px" cx="-1003.6873486328124" cy="-177.44708862304697"/><circle class="node node-id-8" r="89.22564079451323" fill="rgb(255, 255, 255)" stroke="rgb(0, 0, 0)" stroke-width="8px" cx="-1242.481694647606" cy="270.87049557300327"/><circle class="node node-id-9" r="69.18786809318348" fill="rgb(255, 255, 255)" stroke="rgb(0, 0, 0)" stroke-width="8px" cx="-69.68085106382979" cy="-28.106382978723463"/><circle class="node node-id-10" r="73.4869423806453" fill="rgb(255, 255, 255)" stroke="rgb(0, 0, 0)" stroke-width="8px" cx="-1110.4845019531244" cy="455.0630249023437"/><g class="caption"><text class="caption node" text-anchor="middle" alignment-baseline="central" x="-1194.7169799804694" y="27.239423065185505" fill="rgb(51, 51, 51)" font-size="50px" font-family="&quot;Gill Sans&quot;, &quot;Gill Sans MT&quot;, Calibri, sans-serif">Heure</text></g><g class="caption"><text class="caption node" text-anchor="middle" alignment-baseline="central" x="-1003.6873486328124" y="-177.44708862304697" fill="rgb(51, 51, 51)" font-size="50px" font-family="&quot;Gill Sans&quot;, &quot;Gill Sans MT&quot;, Calibri, sans-serif">Jour</text></g><g class="caption"><text class="caption node" text-anchor="middle" alignment-baseline="central" x="-1242.481694647606" y="270.87049557300327" fill="rgb(51, 51, 51)" font-size="50px" font-family="&quot;Gill Sans&quot;, &quot;Gill Sans MT&quot;, Calibri, sans-serif">Annee</text></g><g class="caption"><text class="caption node" text-anchor="middle" alignment-baseline="central" x="-69.68085106382979" y="-28.106382978723463" fill="rgb(51, 51, 51)" font-size="50px" font-family="&quot;Gill Sans&quot;, &quot;Gill Sans MT&quot;, Calibri, sans-serif">Ville</text></g><g class="caption"><text class="caption node" text-anchor="middle" alignment-baseline="central" x="-1110.4845019531244" y="455.0630249023437" fill="rgb(51, 51, 51)" font-size="50px" font-family="&quot;Gill Sans&quot;, &quot;Gill Sans MT&quot;, Calibri, sans-serif">Mois</text></g><circle class="node node-id-10" r="90.11621962723348" fill="rgb(255, 255, 255)" stroke="rgb(0, 0, 0)" stroke-width="8px" cx="-566.3722363281254" cy="78.61646362304685"/><g class="caption"><text class="caption node" text-anchor="middle" alignment-baseline="central" x="-566.3722363281254" y="78.61646362304685" fill="rgb(51, 51, 51)" font-size="50px" font-family="&quot;Gill Sans&quot;, &quot;Gill Sans MT&quot;, Calibri, sans-serif">Releve</text></g><circle class="node node-id-10" r="87.25631465449474" fill="rgb(255, 255, 255)" stroke="rgb(0, 0, 0)" stroke-width="8px" cx="-589.0559008789064" cy="455.0630249023437"/><g class="caption"><text class="caption node" text-anchor="middle" alignment-baseline="central" x="-589.0559008789064" y="455.0630249023437" fill="rgb(51, 51, 51)" font-size="50px" font-family="&quot;Gill Sans&quot;, &quot;Gill Sans MT&quot;, Calibri, sans-serif">Saison</text></g></g><g class="layer properties"/><g class="layer overlay"><circle class="node overlay" r="91.77912532985948" stroke="none" fill="rgba(255, 255, 255, 0)" cx="-1194.7169799804694" cy="27.239423065185505"/><circle class="node overlay" r="71.82873534774785" stroke="none" fill="rgba(255, 255, 255, 0)" cx="-1003.6873486328124" cy="-177.44708862304697"/><circle class="node overlay" r="93.22564079451323" stroke="none" fill="rgba(255, 255, 255, 0)" cx="-1242.481694647606" cy="270.87049557300327"/><circle class="node overlay" r="73.18786809318348" stroke="none" fill="rgba(255, 255, 255, 0)" cx="-69.68085106382979" cy="-28.106382978723463"/><circle class="node overlay" r="77.4869423806453" stroke="none" fill="rgba(255, 255, 255, 0)" cx="-1110.4845019531244" cy="455.0630249023437"/><circle class="node ring" r="96.77912532985948" fill="none" stroke="rgba(255, 255, 255, 0)" stroke-width="10px" cx="-1194.7169799804694" cy="27.239423065185505"/><circle class="node ring" r="76.82873534774785" fill="none" stroke="rgba(255, 255, 255, 0)" stroke-width="10px" cx="-1003.6873486328124" cy="-177.44708862304697"/><circle class="node ring" r="98.22564079451323" fill="none" stroke="rgba(255, 255, 255, 0)" stroke-width="10px" cx="-1242.481694647606" cy="270.87049557300327"/><circle class="node ring" r="78.18786809318348" fill="none" stroke="rgba(255, 255, 255, 0)" stroke-width="10px" cx="-69.68085106382979" cy="-28.106382978723463"/><circle class="node ring" r="82.4869423806453" fill="none" stroke="rgba(255, 255, 255, 0)" stroke-width="10px" cx="-1110.4845019531244" cy="455.0630249023437"/><path class="relationship overlay" fill="rgba(255, 255, 255, 0)" stroke="rgba(255, 255, 255, 0)" stroke-width="10px" transform="translate(-566.3722363281254,78.61646362304685) rotate(-12.126624847745564)" d="M 105.11621962723348 4 L 391.839786845551 4 L 391.839786845551 16 L 423.839786845551 0 L 391.839786845551 -16 L 391.839786845551 -4 L 105.11621962723348 -4 Z"/><path class="relationship overlay" fill="rgba(255, 255, 255, 0)" stroke="rgba(255, 255, 255, 0)" stroke-width="10px" transform="translate(-566.3722363281254,78.61646362304685) rotate(164.12671755458888)" d="M 105.11621962723348 4 L 566.686595853901 4 L 566.686595853901 16 L 598.686595853901 0 L 566.686595853901 -16 L 566.686595853901 -4 L 105.11621962723348 -4 Z"/><path class="relationship overlay" fill="rgba(255, 255, 255, 0)" stroke="rgba(255, 255, 255, 0)" stroke-width="10px" transform="translate(-566.3722363281254,78.61646362304685) rotate(145.32240023547115)" d="M 105.11621962723348 4 L 541.155084022286 4 L 541.155084022286 16 L 573.155084022286 0 L 541.155084022286 -16 L 541.155084022286 -4 L 105.11621962723348 -4 Z"/><path class="relationship overlay" fill="rgba(255, 255, 255, 0)" stroke="rgba(255, 255, 255, 0)" stroke-width="10px" transform="translate(-1110.4845019531244,455.0630249023437) rotate(0)" d="M 88.4869423806453 4 L 387.1722864197234 4 L 387.1722864197234 16 L 419.1722864197234 0 L 387.1722864197234 -16 L 387.1722864197234 -4 L 88.4869423806453 -4 Z"/><circle class="node overlay" r="94.11621962723348" stroke="none" fill="rgba(255, 255, 255, 0)" cx="-566.3722363281254" cy="78.61646362304685"/><circle class="node ring" r="99.11621962723348" fill="none" stroke="rgba(255, 255, 255, 0)" stroke-width="10px" cx="-566.3722363281254" cy="78.61646362304685"/><path class="relationship overlay" fill="rgba(255, 255, 255, 0)" stroke="rgba(255, 255, 255, 0)" stroke-width="10px" transform="translate(-566.3722363281254,78.61646362304685) rotate(-175.32556980151793)" d="M 105.11621962723348 4 L 495.6625588662398 4 L 495.6625588662398 16 L 527.6625588662398 0 L 495.6625588662398 -16 L 495.6625588662398 -4 L 105.11621962723348 -4 Z"/><circle class="node overlay" r="91.25631465449474" stroke="none" fill="rgba(255, 255, 255, 0)" cx="-589.0559008789064" cy="455.0630249023437"/><circle class="node ring" r="96.25631465449474" fill="none" stroke="rgba(255, 255, 255, 0)" stroke-width="10px" cx="-589.0559008789064" cy="455.0630249023437"/><path class="relationship overlay" fill="rgba(255, 255, 255, 0)" stroke="rgba(255, 255, 255, 0)" stroke-width="10px" transform="translate(-566.3722363281254,78.61646362304685) rotate(-149.64950938013632)" d="M 105.11621962723348 4 L 391.9385191576602 4 L 391.9385191576602 16 L 423.9385191576602 0 L 391.9385191576602 -16 L 391.9385191576602 -4 L 105.11621962723348 -4 Z"/></g></svg>